<svg xmlns="http://www.w3.org/2000/svg" width="1060" height="210" viewBox="0 0 1060 210" role="img">
<rect width="1060" height="210" fill="#ffffff"/>
<style>
@keyframes grow{from{transform:scaleX(0)}}
@keyframes rise{from{opacity:0;transform:translateY(9px)}}
@keyframes fade{from{opacity:0}}
@keyframes draw{to{stroke-dashoffset:0}}
.bar{transform-box:fill-box;transform-origin:left center;animation:grow .9s cubic-bezier(.22,1,.36,1) var(--d,0s) both}
.rise{animation:rise .7s cubic-bezier(.22,1,.36,1) var(--d,0s) both}
.fade{animation:fade .8s ease-out var(--d,0s) both}
.draw{animation:draw 1.7s ease-out .1s both}
@media (prefers-reduced-motion:reduce){
.bar,.rise,.fade,.draw{animation:none;transform:none;opacity:1;stroke-dashoffset:0}
}
</style>
<g>
<text x="0" y="16" font-family="-apple-system,BlinkMacSystemFont,'Segoe UI',Helvetica,Arial,sans-serif" font-size="12" font-weight="700" fill="#0b0b0b" text-anchor="start">Weekly commits, last 52 weeks</text>
<line x1="40" y1="182" x2="1052" y2="182" stroke="#e1e0d9" stroke-width="1"/>
<text x="32" y="186" font-family="-apple-system,BlinkMacSystemFont,'Segoe UI',Helvetica,Arial,sans-serif" font-size="10" font-weight="400" fill="#898781" text-anchor="end">0</text>
<line x1="40" y1="110" x2="1052" y2="110" stroke="#e1e0d9" stroke-width="1"/>
<text x="32" y="114" font-family="-apple-system,BlinkMacSystemFont,'Segoe UI',Helvetica,Arial,sans-serif" font-size="10" font-weight="400" fill="#898781" text-anchor="end">27</text>
<line x1="40" y1="38" x2="1052" y2="38" stroke="#e1e0d9" stroke-width="1"/>
<text x="32" y="42" font-family="-apple-system,BlinkMacSystemFont,'Segoe UI',Helvetica,Arial,sans-serif" font-size="10" font-weight="400" fill="#898781" text-anchor="end">54</text>
<path class="fade" style="--d:.5s" d="M40.0,182.0L53.5,160.7L67.0,182.0L80.5,174.0L94.0,182.0L107.5,158.0L121.0,182.0L134.5,166.0L147.9,182.0L161.4,155.3L174.9,182.0L188.4,182.0L201.9,134.0L215.4,182.0L228.9,171.3L242.4,182.0L255.9,182.0L269.4,182.0L282.9,182.0L296.4,182.0L309.9,182.0L323.4,182.0L336.9,182.0L350.3,182.0L363.8,182.0L377.3,182.0L390.8,182.0L404.3,182.0L417.8,182.0L431.3,182.0L444.8,182.0L458.3,182.0L471.8,179.3L485.3,182.0L498.8,182.0L512.3,182.0L525.8,155.3L539.3,182.0L552.7,182.0L566.2,182.0L579.7,179.3L593.2,182.0L606.7,176.7L620.2,182.0L633.7,176.7L647.2,182.0L660.7,139.3L674.2,182.0L687.7,144.7L701.2,168.7L714.7,160.7L728.2,158.0L741.7,174.0L755.1,182.0L768.6,182.0L782.1,182.0L795.6,182.0L809.1,179.3L822.6,182.0L836.1,158.0L849.6,158.0L863.1,163.3L876.6,166.0L890.1,182.0L903.6,179.3L917.1,158.0L930.6,144.7L944.1,144.7L957.5,158.0L971.0,54.0L984.5,72.7L998.0,136.7L1011.5,168.7L1025.0,171.3L1038.5,176.7L1052.0,182.0L1052.0,182L40.0,182Z" fill="rgba(13,148,136,0.14)"/>
<path class="draw" pathLength="1" stroke-dasharray="1" stroke-dashoffset="1" d="M40.0,182.0L53.5,160.7L67.0,182.0L80.5,174.0L94.0,182.0L107.5,158.0L121.0,182.0L134.5,166.0L147.9,182.0L161.4,155.3L174.9,182.0L188.4,182.0L201.9,134.0L215.4,182.0L228.9,171.3L242.4,182.0L255.9,182.0L269.4,182.0L282.9,182.0L296.4,182.0L309.9,182.0L323.4,182.0L336.9,182.0L350.3,182.0L363.8,182.0L377.3,182.0L390.8,182.0L404.3,182.0L417.8,182.0L431.3,182.0L444.8,182.0L458.3,182.0L471.8,179.3L485.3,182.0L498.8,182.0L512.3,182.0L525.8,155.3L539.3,182.0L552.7,182.0L566.2,182.0L579.7,179.3L593.2,182.0L606.7,176.7L620.2,182.0L633.7,176.7L647.2,182.0L660.7,139.3L674.2,182.0L687.7,144.7L701.2,168.7L714.7,160.7L728.2,158.0L741.7,174.0L755.1,182.0L768.6,182.0L782.1,182.0L795.6,182.0L809.1,179.3L822.6,182.0L836.1,158.0L849.6,158.0L863.1,163.3L876.6,166.0L890.1,182.0L903.6,179.3L917.1,158.0L930.6,144.7L944.1,144.7L957.5,158.0L971.0,54.0L984.5,72.7L998.0,136.7L1011.5,168.7L1025.0,171.3L1038.5,176.7L1052.0,182.0" fill="none" stroke="#0d9488" stroke-width="2" stroke-linejoin="round" stroke-linecap="round"/>
<line x1="40" y1="182" x2="1052" y2="182" stroke="#c3c2b7" stroke-width="1"/>
<text x="40" y="202" font-family="-apple-system,BlinkMacSystemFont,'Segoe UI',Helvetica,Arial,sans-serif" font-size="10" font-weight="400" fill="#898781" text-anchor="start">Sep</text>
<text x="188.42666666666668" y="202" font-family="-apple-system,BlinkMacSystemFont,'Segoe UI',Helvetica,Arial,sans-serif" font-size="10" font-weight="400" fill="#898781" text-anchor="middle">Nov</text>
<text x="323.36" y="202" font-family="-apple-system,BlinkMacSystemFont,'Segoe UI',Helvetica,Arial,sans-serif" font-size="10" font-weight="400" fill="#898781" text-anchor="middle">Dec</text>
<text x="471.7866666666667" y="202" font-family="-apple-system,BlinkMacSystemFont,'Segoe UI',Helvetica,Arial,sans-serif" font-size="10" font-weight="400" fill="#898781" text-anchor="middle">Jan</text>
<text x="620.2133333333334" y="202" font-family="-apple-system,BlinkMacSystemFont,'Segoe UI',Helvetica,Arial,sans-serif" font-size="10" font-weight="400" fill="#898781" text-anchor="middle">Feb</text>
<text x="768.64" y="202" font-family="-apple-system,BlinkMacSystemFont,'Segoe UI',Helvetica,Arial,sans-serif" font-size="10" font-weight="400" fill="#898781" text-anchor="middle">Apr</text>
<text x="903.5733333333334" y="202" font-family="-apple-system,BlinkMacSystemFont,'Segoe UI',Helvetica,Arial,sans-serif" font-size="10" font-weight="400" fill="#898781" text-anchor="middle">Jul</text>
<text x="1052" y="202" font-family="-apple-system,BlinkMacSystemFont,'Segoe UI',Helvetica,Arial,sans-serif" font-size="10" font-weight="400" fill="#898781" text-anchor="end">Sep</text>
</g>
</svg>
