<svg xmlns="http://www.w3.org/2000/svg" width="1060" height="210" viewBox="0 0 1060 210" role="img">
<rect width="1060" height="210" fill="#ffffff"/>
<style>
@keyframes grow{from{transform:scaleX(0)}}
@keyframes rise{from{opacity:0;transform:translateY(9px)}}
@keyframes fade{from{opacity:0}}
@keyframes draw{to{stroke-dashoffset:0}}
.bar{transform-box:fill-box;transform-origin:left center;animation:grow .9s cubic-bezier(.22,1,.36,1) var(--d,0s) both}
.rise{animation:rise .7s cubic-bezier(.22,1,.36,1) var(--d,0s) both}
.fade{animation:fade .8s ease-out var(--d,0s) both}
.draw{animation:draw 1.7s ease-out .1s both}
@media (prefers-reduced-motion:reduce){
.bar,.rise,.fade,.draw{animation:none;transform:none;opacity:1;stroke-dashoffset:0}
}
</style>
<g>
<text x="0" y="16" font-family="-apple-system,BlinkMacSystemFont,'Segoe UI',Helvetica,Arial,sans-serif" font-size="12" font-weight="700" fill="#0b0b0b" text-anchor="start">Weekly commits, last 52 weeks</text>
<line x1="40" y1="182" x2="1052" y2="182" stroke="#e1e0d9" stroke-width="1"/>
<text x="32" y="186" font-family="-apple-system,BlinkMacSystemFont,'Segoe UI',Helvetica,Arial,sans-serif" font-size="10" font-weight="400" fill="#898781" text-anchor="end">0</text>
<line x1="40" y1="110" x2="1052" y2="110" stroke="#e1e0d9" stroke-width="1"/>
<text x="32" y="114" font-family="-apple-system,BlinkMacSystemFont,'Segoe UI',Helvetica,Arial,sans-serif" font-size="10" font-weight="400" fill="#898781" text-anchor="end">29</text>
<line x1="40" y1="38" x2="1052" y2="38" stroke="#e1e0d9" stroke-width="1"/>
<text x="32" y="42" font-family="-apple-system,BlinkMacSystemFont,'Segoe UI',Helvetica,Arial,sans-serif" font-size="10" font-weight="400" fill="#898781" text-anchor="end">58</text>
<path class="fade" style="--d:.5s" d="M40.0,182.0L53.9,159.7L67.7,182.0L81.6,167.1L95.5,182.0L109.3,157.2L123.2,182.0L137.0,182.0L150.9,137.3L164.8,182.0L178.6,172.1L192.5,182.0L206.4,179.5L220.2,182.0L234.1,172.1L247.9,182.0L261.8,179.5L275.7,182.0L289.5,179.5L303.4,182.0L317.3,182.0L331.1,182.0L345.0,182.0L358.8,182.0L372.7,182.0L386.6,182.0L400.4,182.0L414.3,182.0L428.2,179.5L442.0,182.0L455.9,182.0L469.8,182.0L483.6,157.2L497.5,182.0L511.3,182.0L525.2,182.0L539.1,169.6L552.9,182.0L566.8,174.6L580.7,182.0L594.5,167.1L608.4,182.0L622.2,129.9L636.1,182.0L650.0,129.9L663.8,167.1L677.7,152.2L691.6,159.7L705.4,149.7L719.3,177.0L733.2,182.0L747.0,182.0L760.9,182.0L774.7,179.5L788.6,182.0L802.5,154.7L816.3,159.7L830.2,164.6L844.1,167.1L857.9,182.0L871.8,179.5L885.6,159.7L899.5,147.2L913.4,147.2L927.2,159.7L941.1,62.8L955.0,80.2L968.8,139.8L982.7,164.6L996.5,139.8L1010.4,55.4L1024.3,139.8L1038.1,95.1L1052.0,177.0L1052.0,182L40.0,182Z" fill="rgba(13,148,136,0.14)"/>
<path class="draw" pathLength="1" stroke-dasharray="1" stroke-dashoffset="1" d="M40.0,182.0L53.9,159.7L67.7,182.0L81.6,167.1L95.5,182.0L109.3,157.2L123.2,182.0L137.0,182.0L150.9,137.3L164.8,182.0L178.6,172.1L192.5,182.0L206.4,179.5L220.2,182.0L234.1,172.1L247.9,182.0L261.8,179.5L275.7,182.0L289.5,179.5L303.4,182.0L317.3,182.0L331.1,182.0L345.0,182.0L358.8,182.0L372.7,182.0L386.6,182.0L400.4,182.0L414.3,182.0L428.2,179.5L442.0,182.0L455.9,182.0L469.8,182.0L483.6,157.2L497.5,182.0L511.3,182.0L525.2,182.0L539.1,169.6L552.9,182.0L566.8,174.6L580.7,182.0L594.5,167.1L608.4,182.0L622.2,129.9L636.1,182.0L650.0,129.9L663.8,167.1L677.7,152.2L691.6,159.7L705.4,149.7L719.3,177.0L733.2,182.0L747.0,182.0L760.9,182.0L774.7,179.5L788.6,182.0L802.5,154.7L816.3,159.7L830.2,164.6L844.1,167.1L857.9,182.0L871.8,179.5L885.6,159.7L899.5,147.2L913.4,147.2L927.2,159.7L941.1,62.8L955.0,80.2L968.8,139.8L982.7,164.6L996.5,139.8L1010.4,55.4L1024.3,139.8L1038.1,95.1L1052.0,177.0" fill="none" stroke="#0d9488" stroke-width="2" stroke-linejoin="round" stroke-linecap="round"/>
<line x1="40" y1="182" x2="1052" y2="182" stroke="#c3c2b7" stroke-width="1"/>
<text x="40" y="202" font-family="-apple-system,BlinkMacSystemFont,'Segoe UI',Helvetica,Arial,sans-serif" font-size="10" font-weight="400" fill="#898781" text-anchor="start">Oct</text>
<text x="178.63013698630135" y="202" font-family="-apple-system,BlinkMacSystemFont,'Segoe UI',Helvetica,Arial,sans-serif" font-size="10" font-weight="400" fill="#898781" text-anchor="middle">Nov</text>
<text x="331.12328767123284" y="202" font-family="-apple-system,BlinkMacSystemFont,'Segoe UI',Helvetica,Arial,sans-serif" font-size="10" font-weight="400" fill="#898781" text-anchor="middle">Dec</text>
<text x="469.7534246575342" y="202" font-family="-apple-system,BlinkMacSystemFont,'Segoe UI',Helvetica,Arial,sans-serif" font-size="10" font-weight="400" fill="#898781" text-anchor="middle">Jan</text>
<text x="622.2465753424657" y="202" font-family="-apple-system,BlinkMacSystemFont,'Segoe UI',Helvetica,Arial,sans-serif" font-size="10" font-weight="400" fill="#898781" text-anchor="middle">Mar</text>
<text x="760.8767123287671" y="202" font-family="-apple-system,BlinkMacSystemFont,'Segoe UI',Helvetica,Arial,sans-serif" font-size="10" font-weight="400" fill="#898781" text-anchor="middle">May</text>
<text x="913.3698630136986" y="202" font-family="-apple-system,BlinkMacSystemFont,'Segoe UI',Helvetica,Arial,sans-serif" font-size="10" font-weight="400" fill="#898781" text-anchor="middle">Jul</text>
<text x="1052" y="202" font-family="-apple-system,BlinkMacSystemFont,'Segoe UI',Helvetica,Arial,sans-serif" font-size="10" font-weight="400" fill="#898781" text-anchor="end">Oct</text>
</g>
</svg>
