<svg xmlns="http://www.w3.org/2000/svg" width="860" height="190" viewBox="0 0 860 190" role="img">
<rect width="860" height="190" fill="#ffffff"/>
<line x1="40" y1="162" x2="852" y2="162" stroke="#e1e0d9" stroke-width="1"/>
<text x="32" y="166" font-family="-apple-system,BlinkMacSystemFont,'Segoe UI',Helvetica,Arial,sans-serif" font-size="10" font-weight="400" fill="#898781" text-anchor="end">0</text>
<line x1="40" y1="89" x2="852" y2="89" stroke="#e1e0d9" stroke-width="1"/>
<text x="32" y="93" font-family="-apple-system,BlinkMacSystemFont,'Segoe UI',Helvetica,Arial,sans-serif" font-size="10" font-weight="400" fill="#898781" text-anchor="end">8</text>
<line x1="40" y1="16" x2="852" y2="16" stroke="#e1e0d9" stroke-width="1"/>
<text x="32" y="20" font-family="-apple-system,BlinkMacSystemFont,'Segoe UI',Helvetica,Arial,sans-serif" font-size="10" font-weight="400" fill="#898781" text-anchor="end">16</text>
<path d="M40.0,162.0L51.8,162.0L63.5,162.0L75.3,162.0L87.1,162.0L98.8,162.0L110.6,162.0L122.4,162.0L134.1,134.6L145.9,79.9L157.7,152.9L169.4,70.8L181.2,162.0L193.0,162.0L204.8,162.0L216.5,134.6L228.3,162.0L240.1,162.0L251.8,162.0L263.6,162.0L275.4,162.0L287.1,162.0L298.9,162.0L310.7,162.0L322.4,162.0L334.2,162.0L346.0,162.0L357.7,162.0L369.5,162.0L381.3,162.0L393.0,162.0L404.8,162.0L416.6,162.0L428.3,152.9L440.1,162.0L451.9,162.0L463.7,162.0L475.4,162.0L487.2,162.0L499.0,162.0L510.7,162.0L522.5,152.9L534.3,162.0L546.0,162.0L557.8,162.0L569.6,152.9L581.3,162.0L593.1,116.4L604.9,162.0L616.6,152.9L628.4,125.5L640.2,162.0L651.9,162.0L663.7,162.0L675.5,162.0L687.2,162.0L699.0,162.0L710.8,162.0L722.6,152.9L734.3,162.0L746.1,79.9L757.9,125.5L769.6,134.6L781.4,107.3L793.2,162.0L804.9,152.9L816.7,79.9L828.5,34.3L840.2,134.6L852.0,162.0L852.0,162L40.0,162Z" fill="rgba(13,148,136,0.14)"/>
<path d="M40.0,162.0L51.8,162.0L63.5,162.0L75.3,162.0L87.1,162.0L98.8,162.0L110.6,162.0L122.4,162.0L134.1,134.6L145.9,79.9L157.7,152.9L169.4,70.8L181.2,162.0L193.0,162.0L204.8,162.0L216.5,134.6L228.3,162.0L240.1,162.0L251.8,162.0L263.6,162.0L275.4,162.0L287.1,162.0L298.9,162.0L310.7,162.0L322.4,162.0L334.2,162.0L346.0,162.0L357.7,162.0L369.5,162.0L381.3,162.0L393.0,162.0L404.8,162.0L416.6,162.0L428.3,152.9L440.1,162.0L451.9,162.0L463.7,162.0L475.4,162.0L487.2,162.0L499.0,162.0L510.7,162.0L522.5,152.9L534.3,162.0L546.0,162.0L557.8,162.0L569.6,152.9L581.3,162.0L593.1,116.4L604.9,162.0L616.6,152.9L628.4,125.5L640.2,162.0L651.9,162.0L663.7,162.0L675.5,162.0L687.2,162.0L699.0,162.0L710.8,162.0L722.6,152.9L734.3,162.0L746.1,79.9L757.9,125.5L769.6,134.6L781.4,107.3L793.2,162.0L804.9,152.9L816.7,79.9L828.5,34.3L840.2,134.6L852.0,162.0" fill="none" stroke="#0d9488" stroke-width="2" stroke-linejoin="round" stroke-linecap="round"/>
<line x1="40" y1="162" x2="852" y2="162" stroke="#c3c2b7" stroke-width="1"/>
<text x="40" y="182" font-family="-apple-system,BlinkMacSystemFont,'Segoe UI',Helvetica,Arial,sans-serif" font-size="10" font-weight="400" fill="#898781" text-anchor="start">ago</text>
<text x="204.7536231884058" y="182" font-family="-apple-system,BlinkMacSystemFont,'Segoe UI',Helvetica,Arial,sans-serif" font-size="10" font-weight="400" fill="#898781" text-anchor="middle">nov</text>
<text x="369.5072463768116" y="182" font-family="-apple-system,BlinkMacSystemFont,'Segoe UI',Helvetica,Arial,sans-serif" font-size="10" font-weight="400" fill="#898781" text-anchor="middle">dic</text>
<text x="522.4927536231884" y="182" font-family="-apple-system,BlinkMacSystemFont,'Segoe UI',Helvetica,Arial,sans-serif" font-size="10" font-weight="400" fill="#898781" text-anchor="middle">feb</text>
<text x="687.2463768115942" y="182" font-family="-apple-system,BlinkMacSystemFont,'Segoe UI',Helvetica,Arial,sans-serif" font-size="10" font-weight="400" fill="#898781" text-anchor="middle">abr</text>
<text x="852" y="182" font-family="-apple-system,BlinkMacSystemFont,'Segoe UI',Helvetica,Arial,sans-serif" font-size="10" font-weight="400" fill="#898781" text-anchor="end">ago</text>
</svg>
