<svg xmlns="http://www.w3.org/2000/svg" width="1060" height="210" viewBox="0 0 1060 210" role="img">
<rect width="1060" height="210" fill="#ffffff"/>
<style>
@keyframes grow{from{transform:scaleX(0)}}
@keyframes rise{from{opacity:0;transform:translateY(9px)}}
@keyframes fade{from{opacity:0}}
@keyframes draw{to{stroke-dashoffset:0}}
.bar{transform-box:fill-box;transform-origin:left center;animation:grow .9s cubic-bezier(.22,1,.36,1) var(--d,0s) both}
.rise{animation:rise .7s cubic-bezier(.22,1,.36,1) var(--d,0s) both}
.fade{animation:fade .8s ease-out var(--d,0s) both}
.draw{animation:draw 1.7s ease-out .1s both}
@media (prefers-reduced-motion:reduce){
.bar,.rise,.fade,.draw{animation:none;transform:none;opacity:1;stroke-dashoffset:0}
}
</style>
<g>
<text x="0" y="16" font-family="-apple-system,BlinkMacSystemFont,'Segoe UI',Helvetica,Arial,sans-serif" font-size="12" font-weight="700" fill="#0b0b0b" text-anchor="start">Weekly commits, last 52 weeks</text>
<line x1="40" y1="182" x2="1052" y2="182" stroke="#e1e0d9" stroke-width="1"/>
<text x="32" y="186" font-family="-apple-system,BlinkMacSystemFont,'Segoe UI',Helvetica,Arial,sans-serif" font-size="10" font-weight="400" fill="#898781" text-anchor="end">0</text>
<line x1="40" y1="110" x2="1052" y2="110" stroke="#e1e0d9" stroke-width="1"/>
<text x="32" y="114" font-family="-apple-system,BlinkMacSystemFont,'Segoe UI',Helvetica,Arial,sans-serif" font-size="10" font-weight="400" fill="#898781" text-anchor="end">8</text>
<line x1="40" y1="38" x2="1052" y2="38" stroke="#e1e0d9" stroke-width="1"/>
<text x="32" y="42" font-family="-apple-system,BlinkMacSystemFont,'Segoe UI',Helvetica,Arial,sans-serif" font-size="10" font-weight="400" fill="#898781" text-anchor="end">16</text>
<path class="fade" style="--d:.5s" d="M40.0,182.0L52.3,182.0L64.7,182.0L77.0,182.0L89.4,182.0L101.7,182.0L114.0,182.0L126.4,182.0L138.7,182.0L151.1,182.0L163.4,182.0L175.8,182.0L188.1,182.0L200.4,182.0L212.8,182.0L225.1,182.0L237.5,182.0L249.8,155.0L262.1,182.0L274.5,101.0L286.8,182.0L299.2,173.0L311.5,182.0L323.9,92.0L336.2,182.0L348.5,182.0L360.9,182.0L373.2,182.0L385.6,155.0L397.9,182.0L410.2,182.0L422.6,182.0L434.9,182.0L447.3,182.0L459.6,182.0L472.0,182.0L484.3,182.0L496.6,182.0L509.0,182.0L521.3,182.0L533.7,182.0L546.0,182.0L558.3,182.0L570.7,182.0L583.0,182.0L595.4,182.0L607.7,173.0L620.0,182.0L632.4,182.0L644.7,182.0L657.1,119.0L669.4,182.0L681.8,182.0L694.1,182.0L706.4,173.0L718.8,182.0L731.1,182.0L743.5,182.0L755.8,173.0L768.1,182.0L780.5,137.0L792.8,182.0L805.2,173.0L817.5,146.0L829.9,182.0L842.2,182.0L854.5,182.0L866.9,182.0L879.2,182.0L891.6,182.0L903.9,182.0L916.2,173.0L928.6,182.0L940.9,101.0L953.3,101.0L965.6,119.0L978.0,128.0L990.3,182.0L1002.6,173.0L1015.0,101.0L1027.3,56.0L1039.7,155.0L1052.0,137.0L1052.0,182L40.0,182Z" fill="rgba(13,148,136,0.14)"/>
<path class="draw" pathLength="1" stroke-dasharray="1" stroke-dashoffset="1" d="M40.0,182.0L52.3,182.0L64.7,182.0L77.0,182.0L89.4,182.0L101.7,182.0L114.0,182.0L126.4,182.0L138.7,182.0L151.1,182.0L163.4,182.0L175.8,182.0L188.1,182.0L200.4,182.0L212.8,182.0L225.1,182.0L237.5,182.0L249.8,155.0L262.1,182.0L274.5,101.0L286.8,182.0L299.2,173.0L311.5,182.0L323.9,92.0L336.2,182.0L348.5,182.0L360.9,182.0L373.2,182.0L385.6,155.0L397.9,182.0L410.2,182.0L422.6,182.0L434.9,182.0L447.3,182.0L459.6,182.0L472.0,182.0L484.3,182.0L496.6,182.0L509.0,182.0L521.3,182.0L533.7,182.0L546.0,182.0L558.3,182.0L570.7,182.0L583.0,182.0L595.4,182.0L607.7,173.0L620.0,182.0L632.4,182.0L644.7,182.0L657.1,119.0L669.4,182.0L681.8,182.0L694.1,182.0L706.4,173.0L718.8,182.0L731.1,182.0L743.5,182.0L755.8,173.0L768.1,182.0L780.5,137.0L792.8,182.0L805.2,173.0L817.5,146.0L829.9,182.0L842.2,182.0L854.5,182.0L866.9,182.0L879.2,182.0L891.6,182.0L903.9,182.0L916.2,173.0L928.6,182.0L940.9,101.0L953.3,101.0L965.6,119.0L978.0,128.0L990.3,182.0L1002.6,173.0L1015.0,101.0L1027.3,56.0L1039.7,155.0L1052.0,137.0" fill="none" stroke="#0d9488" stroke-width="2" stroke-linejoin="round" stroke-linecap="round"/>
<line x1="40" y1="182" x2="1052" y2="182" stroke="#c3c2b7" stroke-width="1"/>
<text x="40" y="202" font-family="-apple-system,BlinkMacSystemFont,'Segoe UI',Helvetica,Arial,sans-serif" font-size="10" font-weight="400" fill="#898781" text-anchor="start">Aug</text>
<text x="188.09756097560975" y="202" font-family="-apple-system,BlinkMacSystemFont,'Segoe UI',Helvetica,Arial,sans-serif" font-size="10" font-weight="400" fill="#898781" text-anchor="middle">Sep</text>
<text x="323.8536585365854" y="202" font-family="-apple-system,BlinkMacSystemFont,'Segoe UI',Helvetica,Arial,sans-serif" font-size="10" font-weight="400" fill="#898781" text-anchor="middle">Oct</text>
<text x="471.9512195121951" y="202" font-family="-apple-system,BlinkMacSystemFont,'Segoe UI',Helvetica,Arial,sans-serif" font-size="10" font-weight="400" fill="#898781" text-anchor="middle">Dec</text>
<text x="620.0487804878048" y="202" font-family="-apple-system,BlinkMacSystemFont,'Segoe UI',Helvetica,Arial,sans-serif" font-size="10" font-weight="400" fill="#898781" text-anchor="middle">Jan</text>
<text x="768.1463414634146" y="202" font-family="-apple-system,BlinkMacSystemFont,'Segoe UI',Helvetica,Arial,sans-serif" font-size="10" font-weight="400" fill="#898781" text-anchor="middle">Mar</text>
<text x="903.9024390243902" y="202" font-family="-apple-system,BlinkMacSystemFont,'Segoe UI',Helvetica,Arial,sans-serif" font-size="10" font-weight="400" fill="#898781" text-anchor="middle">May</text>
<text x="1052" y="202" font-family="-apple-system,BlinkMacSystemFont,'Segoe UI',Helvetica,Arial,sans-serif" font-size="10" font-weight="400" fill="#898781" text-anchor="end">Aug</text>
</g>
</svg>
