<svg xmlns="http://www.w3.org/2000/svg" width="1060" height="210" viewBox="0 0 1060 210" role="img">
<rect width="1060" height="210" fill="#ffffff"/>
<style>
@keyframes grow{from{transform:scaleX(0)}}
@keyframes rise{from{opacity:0;transform:translateY(9px)}}
@keyframes fade{from{opacity:0}}
@keyframes draw{to{stroke-dashoffset:0}}
.bar{transform-box:fill-box;transform-origin:left center;animation:grow .9s cubic-bezier(.22,1,.36,1) var(--d,0s) both}
.rise{animation:rise .7s cubic-bezier(.22,1,.36,1) var(--d,0s) both}
.fade{animation:fade .8s ease-out var(--d,0s) both}
.draw{animation:draw 1.7s ease-out .1s both}
@media (prefers-reduced-motion:reduce){
.bar,.rise,.fade,.draw{animation:none;transform:none;opacity:1;stroke-dashoffset:0}
}
</style>
<g>
<text x="0" y="16" font-family="-apple-system,BlinkMacSystemFont,'Segoe UI',Helvetica,Arial,sans-serif" font-size="12" font-weight="700" fill="#0b0b0b" text-anchor="start">Commits semanales, últimas 52 semanas</text>
<line x1="40" y1="182" x2="1052" y2="182" stroke="#e1e0d9" stroke-width="1"/>
<text x="32" y="186" font-family="-apple-system,BlinkMacSystemFont,'Segoe UI',Helvetica,Arial,sans-serif" font-size="10" font-weight="400" fill="#898781" text-anchor="end">0</text>
<line x1="40" y1="110" x2="1052" y2="110" stroke="#e1e0d9" stroke-width="1"/>
<text x="32" y="114" font-family="-apple-system,BlinkMacSystemFont,'Segoe UI',Helvetica,Arial,sans-serif" font-size="10" font-weight="400" fill="#898781" text-anchor="end">27</text>
<line x1="40" y1="38" x2="1052" y2="38" stroke="#e1e0d9" stroke-width="1"/>
<text x="32" y="42" font-family="-apple-system,BlinkMacSystemFont,'Segoe UI',Helvetica,Arial,sans-serif" font-size="10" font-weight="400" fill="#898781" text-anchor="end">54</text>
<path class="fade" style="--d:.5s" d="M40.0,182.0L53.7,174.0L67.4,182.0L81.0,158.0L94.7,182.0L108.4,166.0L122.1,182.0L135.7,155.3L149.4,182.0L163.1,182.0L176.8,134.0L190.4,182.0L204.1,171.3L217.8,182.0L231.5,182.0L245.1,182.0L258.8,182.0L272.5,182.0L286.2,182.0L299.8,182.0L313.5,182.0L327.2,182.0L340.9,182.0L354.5,182.0L368.2,182.0L381.9,182.0L395.6,182.0L409.2,182.0L422.9,182.0L436.6,182.0L450.3,179.3L463.9,182.0L477.6,182.0L491.3,182.0L505.0,155.3L518.6,182.0L532.3,182.0L546.0,182.0L559.7,179.3L573.4,182.0L587.0,176.7L600.7,182.0L614.4,168.7L628.1,182.0L641.7,134.0L655.4,182.0L669.1,144.7L682.8,168.7L696.4,160.7L710.1,158.0L723.8,174.0L737.5,182.0L751.1,182.0L764.8,182.0L778.5,182.0L792.2,179.3L805.8,182.0L819.5,158.0L833.2,158.0L846.9,163.3L860.5,166.0L874.2,182.0L887.9,179.3L901.6,158.0L915.2,144.7L928.9,144.7L942.6,158.0L956.3,54.0L969.9,72.7L983.6,136.7L997.3,166.0L1011.0,139.3L1024.6,104.7L1038.3,136.7L1052.0,171.3L1052.0,182L40.0,182Z" fill="rgba(13,148,136,0.14)"/>
<path class="draw" pathLength="1" stroke-dasharray="1" stroke-dashoffset="1" d="M40.0,182.0L53.7,174.0L67.4,182.0L81.0,158.0L94.7,182.0L108.4,166.0L122.1,182.0L135.7,155.3L149.4,182.0L163.1,182.0L176.8,134.0L190.4,182.0L204.1,171.3L217.8,182.0L231.5,182.0L245.1,182.0L258.8,182.0L272.5,182.0L286.2,182.0L299.8,182.0L313.5,182.0L327.2,182.0L340.9,182.0L354.5,182.0L368.2,182.0L381.9,182.0L395.6,182.0L409.2,182.0L422.9,182.0L436.6,182.0L450.3,179.3L463.9,182.0L477.6,182.0L491.3,182.0L505.0,155.3L518.6,182.0L532.3,182.0L546.0,182.0L559.7,179.3L573.4,182.0L587.0,176.7L600.7,182.0L614.4,168.7L628.1,182.0L641.7,134.0L655.4,182.0L669.1,144.7L682.8,168.7L696.4,160.7L710.1,158.0L723.8,174.0L737.5,182.0L751.1,182.0L764.8,182.0L778.5,182.0L792.2,179.3L805.8,182.0L819.5,158.0L833.2,158.0L846.9,163.3L860.5,166.0L874.2,182.0L887.9,179.3L901.6,158.0L915.2,144.7L928.9,144.7L942.6,158.0L956.3,54.0L969.9,72.7L983.6,136.7L997.3,166.0L1011.0,139.3L1024.6,104.7L1038.3,136.7L1052.0,171.3" fill="none" stroke="#0d9488" stroke-width="2" stroke-linejoin="round" stroke-linecap="round"/>
<line x1="40" y1="182" x2="1052" y2="182" stroke="#c3c2b7" stroke-width="1"/>
<text x="40" y="202" font-family="-apple-system,BlinkMacSystemFont,'Segoe UI',Helvetica,Arial,sans-serif" font-size="10" font-weight="400" fill="#898781" text-anchor="start">oct</text>
<text x="190.43243243243245" y="202" font-family="-apple-system,BlinkMacSystemFont,'Segoe UI',Helvetica,Arial,sans-serif" font-size="10" font-weight="400" fill="#898781" text-anchor="middle">nov</text>
<text x="327.18918918918916" y="202" font-family="-apple-system,BlinkMacSystemFont,'Segoe UI',Helvetica,Arial,sans-serif" font-size="10" font-weight="400" fill="#898781" text-anchor="middle">dic</text>
<text x="477.62162162162167" y="202" font-family="-apple-system,BlinkMacSystemFont,'Segoe UI',Helvetica,Arial,sans-serif" font-size="10" font-weight="400" fill="#898781" text-anchor="middle">ene</text>
<text x="614.3783783783783" y="202" font-family="-apple-system,BlinkMacSystemFont,'Segoe UI',Helvetica,Arial,sans-serif" font-size="10" font-weight="400" fill="#898781" text-anchor="middle">mar</text>
<text x="764.8108108108108" y="202" font-family="-apple-system,BlinkMacSystemFont,'Segoe UI',Helvetica,Arial,sans-serif" font-size="10" font-weight="400" fill="#898781" text-anchor="middle">may</text>
<text x="901.5675675675675" y="202" font-family="-apple-system,BlinkMacSystemFont,'Segoe UI',Helvetica,Arial,sans-serif" font-size="10" font-weight="400" fill="#898781" text-anchor="middle">jul</text>
<text x="1052" y="202" font-family="-apple-system,BlinkMacSystemFont,'Segoe UI',Helvetica,Arial,sans-serif" font-size="10" font-weight="400" fill="#898781" text-anchor="end">sept</text>
</g>
</svg>
