<svg xmlns="http://www.w3.org/2000/svg" width="550" height="208" viewBox="0 0 550 208" role="img">
<rect width="550" height="208" fill="#0d1117"/>
<g transform="translate(0,0)">
<text x="0" y="16" font-family="-apple-system,BlinkMacSystemFont,'Segoe UI',Helvetica,Arial,sans-serif" font-size="12" font-weight="700" fill="#ffffff" text-anchor="start">Code by language</text>
<text x="0" y="43.5" font-family="-apple-system,BlinkMacSystemFont,'Segoe UI',Helvetica,Arial,sans-serif" font-size="11" font-weight="600" fill="#ffffff" text-anchor="start">TypeScript</text>
<rect x="135" y="34" width="323" height="11" rx="5" fill="#21262d"/>
<rect x="135" y="34" width="323.0" height="11" rx="5" fill="#14b8a6"/>
<text x="520" y="43.5" font-family="-apple-system,BlinkMacSystemFont,'Segoe UI',Helvetica,Arial,sans-serif" font-size="11" font-weight="400" fill="#c3c2b7" text-anchor="end">79.7%</text>
<text x="0" y="71.5" font-family="-apple-system,BlinkMacSystemFont,'Segoe UI',Helvetica,Arial,sans-serif" font-size="11" font-weight="600" fill="#ffffff" text-anchor="start">PHP</text>
<rect x="135" y="62" width="323" height="11" rx="5" fill="#21262d"/>
<rect x="135" y="62" width="59.9" height="11" rx="5" fill="#14b8a6"/>
<text x="520" y="71.5" font-family="-apple-system,BlinkMacSystemFont,'Segoe UI',Helvetica,Arial,sans-serif" font-size="11" font-weight="400" fill="#c3c2b7" text-anchor="end">14.8%</text>
<text x="0" y="99.5" font-family="-apple-system,BlinkMacSystemFont,'Segoe UI',Helvetica,Arial,sans-serif" font-size="11" font-weight="600" fill="#ffffff" text-anchor="start">Mustache</text>
<rect x="135" y="90" width="323" height="11" rx="5" fill="#21262d"/>
<rect x="135" y="90" width="12.8" height="11" rx="5" fill="#14b8a6"/>
<text x="520" y="99.5" font-family="-apple-system,BlinkMacSystemFont,'Segoe UI',Helvetica,Arial,sans-serif" font-size="11" font-weight="400" fill="#c3c2b7" text-anchor="end">3.2%</text>
<text x="0" y="127.5" font-family="-apple-system,BlinkMacSystemFont,'Segoe UI',Helvetica,Arial,sans-serif" font-size="11" font-weight="600" fill="#ffffff" text-anchor="start">PowerShell</text>
<rect x="135" y="118" width="323" height="11" rx="5" fill="#21262d"/>
<rect x="135" y="118" width="4.9" height="11" rx="5" fill="#14b8a6"/>
<text x="520" y="127.5" font-family="-apple-system,BlinkMacSystemFont,'Segoe UI',Helvetica,Arial,sans-serif" font-size="11" font-weight="400" fill="#c3c2b7" text-anchor="end">1.2%</text>
<text x="0" y="155.5" font-family="-apple-system,BlinkMacSystemFont,'Segoe UI',Helvetica,Arial,sans-serif" font-size="11" font-weight="600" fill="#ffffff" text-anchor="start">JavaScript</text>
<rect x="135" y="146" width="323" height="11" rx="5" fill="#21262d"/>
<rect x="135" y="146" width="2.4" height="11" rx="5" fill="#14b8a6"/>
<text x="520" y="155.5" font-family="-apple-system,BlinkMacSystemFont,'Segoe UI',Helvetica,Arial,sans-serif" font-size="11" font-weight="400" fill="#c3c2b7" text-anchor="end">0.6%</text>
<text x="0" y="183.5" font-family="-apple-system,BlinkMacSystemFont,'Segoe UI',Helvetica,Arial,sans-serif" font-size="11" font-weight="600" fill="#ffffff" text-anchor="start">Other</text>
<rect x="135" y="174" width="323" height="11" rx="5" fill="#21262d"/>
<rect x="135" y="174" width="2.4" height="11" rx="5" fill="#14b8a6"/>
<text x="520" y="183.5" font-family="-apple-system,BlinkMacSystemFont,'Segoe UI',Helvetica,Arial,sans-serif" font-size="11" font-weight="400" fill="#c3c2b7" text-anchor="end">0.6%</text>
</g>
</svg>
